# xmcd
#
# Track frame offsets: 
#        150
#        19102
#        31951
#        44922
#        58092
#        76365
#        89737
#        107268
#        120699
#        135262
#        146015
#        162884
#        177461
#        198339
#        216636
#        233359
#        247114
#        260918
#        273531
#        289143
#
# Disc length: 4105 seconds
#
# Revision: 2
# Processed by: cddbd v1.5.2PL0 Copyright (c) Steve Scherf et al.
# Submitted via: ExactAudioCopy v1.0b3
#
DISCID=32100714
DTITLE=стамисг йатеяима [2005] - та йакутеяа
DYEAR=2005
DGENRE=
TTITLE0=с' евы йамеи хео
TTITLE1=лустийе лоу еяыта
TTITLE2=ма соу йамы лиа еяытгсг
TTITLE3=тетоиес ыяес
TTITLE4=суцмылг йуяие поиос еисте
TTITLE5=отам келе еяыта
TTITLE6=се фгты се фгты
TTITLE7=лацийес стицлес
TTITLE8=текеиысам та ьелата
TTITLE9=ти ыяаиос тупос еисаи
TTITLE10=еккгмес еиласте
TTITLE11=о йатаккгкос амхяыпос
TTITLE12=хекеи
TTITLE13=амастатымолаи
TTITLE14=теяла т' астеиа
TTITLE15=дем еилаи еды
TTITLE16=т' астяа йаи та фыдиа
TTITLE17=тыяа ти фгтас
TTITLE18=жуце
TTITLE19=лустийе лоу еяыта [беясиом 2002]
EXTD=
EXTT0=
EXTT1=
EXTT2=
EXTT3=
EXTT4=
EXTT5=
EXTT6=
EXTT7=
EXTT8=
EXTT9=
EXTT10=
EXTT11=
EXTT12=
EXTT13=
EXTT14=
EXTT15=
EXTT16=
EXTT17=
EXTT18=
EXTT19=
PLAYORDER=
